<svg width="320" height="320" viewBox="0 0 320 320" fill="none" xmlns="http://www.w3.org/2000/svg">
<path d="M64.9271 264.061C36.7043 238.248 19 201.1 19 159.813C19 149.245 20.16 138.947 22.3595 129.042L4.2046 123.174C1.45448 134.941 0 147.207 0 159.813C0 207.19 20.5438 249.764 53.1993 279.091L64.9271 264.061Z" fill="#E3A008"/>
<path d="M72.2025 293.75C97.408 310.345 127.578 320 160 320C192.627 320 222.972 310.223 248.274 293.436L236.557 278.377C214.511 292.676 188.224 300.978 160 300.978C131.99 300.978 105.888 292.801 83.9452 278.702L72.2025 293.75Z" fill="#E3A008"/>
<path d="M255.513 263.657L267.224 278.709C299.634 249.395 320 206.985 320 159.813C320 147.263 318.559 135.051 315.832 123.332L297.68 129.219C299.854 139.07 301 149.307 301 159.813C301 200.885 283.48 237.861 255.513 263.657Z" fill="#E3A008"/>
<path d="M29.5479 106.143C49.3096 58.0488 94.8338 23.2866 148.92 19.0774L148.976 0C86.4091 4.26253 33.7163 44.5363 11.4137 100.281L29.5479 106.143Z" fill="#E3A008"/>
</svg>
