<svg width="322" height="320" viewBox="0 0 322 320" fill="none" xmlns="http://www.w3.org/2000/svg">
<path d="M147.361 0.354156C124.708 2.37537 102.108 9.24847 81.0943 21.3806C60.4456 33.3021 43.4284 49.0897 30.4364 67.2889L46.8194 76.5583C58.1452 61.1385 72.7895 47.7523 90.4373 37.5633C108.45 27.1637 127.783 21.1393 147.197 19.1614L147.361 0.354156Z" fill="#E3A008"/>
<path d="M291.523 215.011C306.282 180.44 307.181 140.458 291.735 104.241L308.104 94.7912C326.835 137.037 325.733 184.027 307.905 224.28L291.523 215.011Z" fill="#E3A008"/>
<path d="M176.511 300.565C195.414 298.433 214.208 292.454 231.751 282.326C249.659 271.987 264.474 258.356 275.867 242.648L292.241 251.912C279.188 270.402 262.003 286.437 241.094 298.509C220.551 310.37 198.49 317.204 176.347 319.392L176.511 300.565Z" fill="#E3A008"/>
<path d="M47.5333 245.231C71.4241 277.047 106.988 296.331 144.746 300.57L144.582 319.376C100.371 314.97 58.6288 292.361 31.1651 254.682L47.5333 245.231Z" fill="#E3A008"/>
<path d="M30.9993 104.103C15.641 139.495 14.859 180.657 31.3366 217.675L14.9939 227.11C-4.80117 184.081 -3.81698 135.901 14.6265 94.8395L30.9993 104.103Z" fill="#E3A008"/>
</svg>
