<svg width="48" height="48" viewBox="0 0 48 48" fill="none" xmlns="http://www.w3.org/2000/svg">
<path d="M6.24338 33.9706C3.31422 36.3069 0.754066 38.3801 0.106988 38.9955C0.0846676 39.0133 0.0742405 39.0375 0.0844619 39.0485C0.0940575 39.059 0.117838 39.0549 0.139741 39.039C0.143704 39.0361 3.04554 36.9215 6.4814 34.4165C6.88316 35.1487 7.33061 35.8647 7.82457 36.5613C6.78908 37.4445 6.00349 38.1442 5.74024 38.4472C5.72522 38.4598 5.72292 38.4824 5.73565 38.4973C5.74754 38.5114 5.76819 38.5141 5.78342 38.5035C5.78529 38.5023 6.72379 37.8519 8.07865 36.912C8.18211 37.052 8.28746 37.1912 8.39468 37.3295C8.67921 37.6964 8.97312 38.052 9.27601 38.396C5.47093 41.4197 0.864 45.1146 0.0218812 45.9435C0.00227275 45.9595 -0.00586429 45.9819 0.00456572 45.9932C0.0141613 46.004 0.0360636 46.0017 0.0552548 45.9876C0.0602612 45.9839 5.43672 42.099 9.78374 38.9534C17.4702 47.1101 30.2881 48.2816 39.3843 41.326C48.1599 34.6155 50.4551 22.6469 45.2372 13.3146C45.3945 13.0596 45.5485 12.8018 45.6993 12.5416C46.0777 11.8947 46.3747 11.3357 46.6987 10.6603C46.9882 10.0567 47.5856 8.72818 47.5051 7.93758C47.4911 7.79943 47.438 7.63331 47.3464 7.52644C47.236 7.39802 47.1098 7.316 46.9469 7.26753C45.8374 6.90278 43.2128 7.53783 42.0596 7.84955C41.7659 7.92888 41.4764 8.0109 41.1904 8.09624C33.4367 0.702009 21.1958 -0.152386 12.4196 6.55853C3.8305 13.1263 1.44912 24.7306 6.24338 33.9706Z" fill="#233876"/>
<path d="M10.1682 37.6875C12.6247 35.7388 14.5528 34.2225 14.5605 34.2167C14.7336 34.0727 14.9458 33.9741 15.1602 33.9138C15.4689 33.8269 15.7501 33.8312 15.8102 33.9091C15.8705 33.9872 15.8035 34.2598 15.64 34.5344C15.5536 34.6794 15.4061 34.8809 15.2005 35.0241C15.0309 35.1533 13.1228 36.5365 10.7139 38.2801C18.4984 46.4187 31.4433 46.9705 39.9058 39.4222C47.1534 32.958 48.8032 22.613 44.5311 14.4019C43.7985 15.4731 42.9862 16.4864 42.055 17.4243C40.8449 18.6428 39.6757 19.5678 38.2823 20.6213C39.499 25.108 38.1892 30.0961 34.4699 33.4136C31.3419 36.2036 27.2133 37.185 23.3845 36.4267C23.3494 36.4532 23.314 36.48 23.2785 36.5067C23.1821 36.5792 23.0593 36.5866 22.9546 36.5265C22.8682 36.477 22.8165 36.3907 22.8085 36.2989C20.403 35.7076 18.1442 34.4188 16.3634 32.4503C16.1218 32.1831 15.8936 31.9087 15.6788 31.6276C13.9328 32.8476 11.1741 34.7641 9.01276 36.2639C9.37343 36.7504 9.75871 37.2254 10.1682 37.6875Z" fill="#111928"/>
<path d="M7.15141 33.2473C9.46479 31.4065 11.9048 29.4811 13.7538 28.0258C13.2828 26.642 13.0598 25.1973 13.0813 23.7577C13.0308 23.7399 12.9853 23.7076 12.9492 23.6627C12.8485 23.5363 12.87 23.3526 12.9972 23.2528C13.0325 23.225 13.0679 23.1975 13.1034 23.1699C13.3007 19.9482 14.7242 16.7989 17.3332 14.4716C21.563 10.6988 27.6228 10.2334 32.2965 12.9041C32.9822 12.3728 33.6221 11.8997 34.3658 11.3734C35.2056 10.7777 35.9478 10.3201 36.858 9.83651C37.8686 9.30129 38.8874 8.86778 39.9473 8.49785C32.0864 1.43233 19.9584 1.27284 11.8975 8.46284C4.71913 14.8653 3.03197 25.0746 7.15141 33.2473Z" fill="#111928"/>
<path d="M14.078 28.876C12.1758 30.2646 9.72221 32.0537 7.40863 33.7406C7.79225 34.4533 8.22134 35.1492 8.69549 35.8247C10.7483 34.0997 13.3685 31.9694 15.0011 30.6496C14.6429 30.0775 14.3354 29.4843 14.078 28.876Z" fill="#111928"/>
<path d="M34.4883 7.89654L34.8827 6.88432L30.843 5.33252L30.4485 6.34475L31.7648 6.85056L30.4091 10.3297L31.7932 10.8616L33.1491 7.38205L34.4883 7.89654Z" fill="#1C64F2"/>
<path d="M27.716 7.70208L27.7227 6.65961L25.7371 6.64698L25.7421 5.87418L27.8508 5.88765L27.8575 4.83068L24.2648 4.80811L24.2339 9.62401L27.9415 9.64742L27.9482 8.59066L25.7248 8.57658L25.7304 7.68945L27.716 7.70208Z" fill="#1C64F2"/>
<path d="M19.3888 11.1342L18.9277 10.04C18.7763 9.68039 18.6267 9.33655 18.4786 9.00846C18.3307 8.68058 18.1839 8.3701 18.0387 8.07785L18.0689 8.06521C18.3074 8.28476 18.5612 8.50266 18.8305 8.7189C19.0998 8.93514 19.3562 9.13274 19.5996 9.31149L21.0928 10.4262L22.5303 9.8291L20.6583 5.38623L19.4102 5.90467L19.8545 6.95936C19.9931 7.2889 20.136 7.6056 20.2836 7.90904C20.4313 8.21248 20.5855 8.50328 20.7465 8.78083L20.7238 8.79015C20.4968 8.57309 20.2563 8.35664 20.002 8.14102C19.748 7.9254 19.5024 7.73443 19.2657 7.5679L17.8804 6.53992L16.2689 7.20936L18.1409 11.6522L19.3888 11.1342Z" fill="#1C64F2"/>
<path fill-rule="evenodd" clip-rule="evenodd" d="M14.8202 13.1177L15.888 13.6092L16.9648 12.4346L12.268 10.4033L10.9425 11.8489L13.4468 16.2716L14.4795 15.1453L13.8589 14.1658L14.8202 13.1177ZM13.2845 13.382L12.8005 12.6252C12.7233 12.5003 12.634 12.3646 12.5329 12.2182C12.4319 12.0715 12.3401 11.9336 12.2575 11.8039L12.2686 11.7919C12.4069 11.8605 12.5567 11.9352 12.7177 12.0162C12.8787 12.0972 13.026 12.1695 13.1591 12.2333L13.9745 12.6291L13.2845 13.382Z" fill="#1C64F2"/>
<path fill-rule="evenodd" clip-rule="evenodd" d="M7.22318 18.9915L11.7859 20.6249L13.0102 17.2535L11.9884 16.8877L11.2677 18.8728L7.72653 17.6052L7.22318 18.9915Z" fill="#1C64F2"/>
<path fill-rule="evenodd" clip-rule="evenodd" d="M11.5316 26.1644L11.5041 24.7073L9.85614 24.7382C9.85593 24.693 9.85718 24.6404 9.86031 24.5799C9.86344 24.5196 9.86448 24.4525 9.86386 24.379C9.85739 24.006 9.81004 23.6646 9.72222 23.3556C9.63419 23.0464 9.50214 22.7825 9.32609 22.5635C9.1809 22.3908 9.00526 22.2607 8.79958 22.1733C8.5939 22.0859 8.36778 22.0445 8.12121 22.0486C7.87047 22.0561 7.64581 22.1178 7.44702 22.2342C7.24822 22.3506 7.08843 22.5049 6.96744 22.6971C6.84166 22.8902 6.74925 23.1315 6.6898 23.4213C6.63055 23.7108 6.60469 24.053 6.6122 24.4478C6.62096 24.8616 6.63848 25.2166 6.66477 25.513C6.69105 25.8092 6.72088 26.0561 6.75426 26.2535L11.5316 26.1644ZM7.62516 24.7798C7.61702 24.7431 7.6093 24.6887 7.60221 24.616C7.59512 24.5435 7.59032 24.4542 7.58824 24.3482C7.58553 24.0675 7.63747 23.8575 7.74385 23.7183C7.85024 23.5793 7.9948 23.5083 8.17753 23.5054C8.38843 23.5045 8.5551 23.5849 8.67734 23.7469C8.79958 23.9088 8.86445 24.1338 8.87217 24.4221C8.87342 24.4987 8.87321 24.5638 8.87134 24.6168C8.86946 24.6698 8.86696 24.7166 8.86404 24.7566L7.62516 24.7798Z" fill="#1C64F2"/>
<path fill-rule="evenodd" clip-rule="evenodd" d="M44.869 24.8966C44.9356 24.7317 44.9907 24.5035 45.0342 24.2122C45.0778 23.921 45.0925 23.6072 45.0778 23.2713C45.0459 22.7379 44.9508 22.3023 44.7925 21.9645C44.6344 21.6269 44.4345 21.3806 44.1932 21.2259C43.9518 21.0712 43.6904 21.0016 43.409 21.0173C43.0726 21.0326 42.7914 21.1619 42.5655 21.4051C42.3393 21.648 42.1593 22.0186 42.0252 22.5167C41.9345 22.8663 41.855 23.1219 41.7866 23.2837C41.7181 23.4453 41.6257 23.5281 41.5095 23.532C41.4002 23.537 41.3101 23.4821 41.2394 23.3676C41.1687 23.253 41.1268 23.0834 41.1134 22.8585C41.1026 22.5851 41.1167 22.3471 41.1555 22.1445C41.1945 21.9419 41.2361 21.7802 41.2803 21.659L40.2225 21.4046C40.162 21.5859 40.1152 21.7988 40.0825 22.0438C40.0497 22.2889 40.0412 22.5735 40.0568 22.8976C40.1036 23.5942 40.2782 24.1271 40.5802 24.4958C40.8823 24.8645 41.2523 25.0403 41.6898 25.0227C42.0463 24.9977 42.3352 24.8405 42.5561 24.5513C42.777 24.2622 42.9474 23.8788 43.0674 23.4013C43.141 23.0898 43.2153 22.8641 43.2899 22.724C43.3646 22.584 43.4597 22.5124 43.5751 22.5088C43.6986 22.502 43.7983 22.5587 43.8744 22.6789C43.9506 22.7992 43.9958 22.9852 44.0104 23.2375C44.0221 23.5182 44.0048 23.7845 43.9583 24.0364C43.9118 24.2883 43.8538 24.5018 43.7841 24.6764L44.869 24.8966Z" fill="#1C64F2"/>
<path fill-rule="evenodd" clip-rule="evenodd" d="M43.4528 31.1526C43.5711 31.019 43.6996 30.8222 43.8387 30.5621C43.9779 30.3019 44.097 30.0111 44.1963 29.6894C44.3454 29.1762 44.4022 28.734 44.3665 28.3632C44.3308 27.9925 44.2253 27.6942 44.0498 27.4682C43.8744 27.2424 43.6514 27.0902 43.3809 27.0115C43.0586 26.9146 42.7501 26.9431 42.4551 27.0975C42.1604 27.2516 41.866 27.5413 41.5723 27.9663C41.3691 28.2659 41.2083 28.4804 41.0896 28.6101C40.9709 28.7398 40.856 28.7872 40.745 28.7524C40.6403 28.7207 40.5739 28.6393 40.5456 28.5078C40.5176 28.3765 40.5349 28.2025 40.5977 27.9862C40.6795 27.7248 40.7727 27.5053 40.8777 27.3272C40.9824 27.1492 41.076 27.0103 41.1584 26.9106L40.2469 26.3203C40.129 26.4711 40.0132 26.6565 39.9 26.8767C39.7867 27.0968 39.683 27.3622 39.5887 27.6729C39.3985 28.345 39.3841 28.905 39.5449 29.3529C39.7057 29.8007 39.9953 30.0888 40.4137 30.2174C40.7583 30.3119 41.0833 30.2595 41.3887 30.0602C41.6941 29.8609 41.9837 29.5558 42.2571 29.1455C42.4313 28.8763 42.5771 28.6882 42.6948 28.5809C42.8122 28.4736 42.9259 28.4376 43.0358 28.4726C43.1543 28.5072 43.2294 28.5935 43.2607 28.7321C43.292 28.8707 43.2722 29.0612 43.2011 29.3036C43.118 29.572 43.0121 29.8172 42.8834 30.0395C42.7549 30.2615 42.6282 30.4434 42.5041 30.5851L43.4528 31.1526Z" fill="#1C64F2"/>
<path fill-rule="evenodd" clip-rule="evenodd" d="M40.7945 32.5735L39.9451 31.9608L38.7779 33.5561L38.1482 33.1019L39.3877 31.4078L38.5266 30.7866L36.4149 33.6729L40.3389 36.5035L42.5183 33.525L41.657 32.9039L40.3502 34.6901L39.6274 34.1688L40.7945 32.5735Z" fill="#1C64F2"/>
<path fill-rule="evenodd" clip-rule="evenodd" d="M34.8185 40.8496L36.0392 40.0406L35.0281 38.5367L35.2263 38.4053C35.4103 38.2753 35.5801 38.2156 35.7355 38.2268C35.8911 38.238 36.0759 38.3403 36.2899 38.5338C36.5236 38.7399 36.7207 38.9014 36.8809 39.0184C37.0411 39.1355 37.159 39.2123 37.2341 39.2484L38.489 38.4165C38.4218 38.3813 38.3246 38.313 38.1978 38.2121C38.071 38.111 37.9316 37.9977 37.7802 37.8718C37.6287 37.7459 37.4829 37.628 37.3425 37.518C37.1696 37.3819 36.9952 37.2835 36.8198 37.2224C36.6441 37.1613 36.4618 37.1497 36.2726 37.1879L36.2607 37.17C36.4074 36.9845 36.506 36.7545 36.5561 36.4803C36.6064 36.2061 36.5521 35.9399 36.3936 35.6812C36.2634 35.4884 36.1118 35.3452 35.9389 35.252C35.7659 35.1588 35.573 35.112 35.3602 35.1118C35.1103 35.112 34.8406 35.1731 34.5515 35.2949C34.2623 35.4167 33.9426 35.5946 33.5927 35.8285C33.2842 36.034 33.0091 36.2293 32.7671 36.4142C32.5251 36.5992 32.3247 36.7622 32.1653 36.9033L34.8185 40.8496ZM33.8775 36.8245C33.9031 36.7987 33.9474 36.7614 34.0108 36.7125C34.0742 36.6636 34.1633 36.6011 34.2782 36.5244C34.4847 36.3892 34.6693 36.326 34.8324 36.3355C34.9956 36.3448 35.1278 36.4242 35.2292 36.5733C35.3291 36.7249 35.3456 36.8867 35.2788 37.0584C35.2121 37.2303 35.0625 37.3946 34.8304 37.5514L34.5093 37.7641L33.8775 36.8245Z" fill="#1C64F2"/>
<path fill-rule="evenodd" clip-rule="evenodd" d="M28.1178 42.8943L29.5511 42.5801L29.1957 40.9819C29.2401 40.9728 29.2925 40.9639 29.3525 40.955C29.4128 40.9461 29.4792 40.9339 29.5515 40.9188C29.9187 40.8388 30.2462 40.7255 30.534 40.5791C30.8219 40.4324 31.0564 40.2518 31.2379 40.0372C31.3799 39.8618 31.4738 39.6654 31.5193 39.4478C31.5649 39.2303 31.5614 39.002 31.5086 38.7628C31.4519 38.5202 31.3465 38.3137 31.1924 38.1431C31.0382 37.9724 30.8545 37.8473 30.6406 37.7675C30.4252 37.6832 30.1688 37.6408 29.8711 37.6401C29.5734 37.6395 29.2305 37.6818 28.8423 37.7669C28.4353 37.857 28.0882 37.944 27.801 38.0281C27.5137 38.1122 27.2757 38.1899 27.0876 38.2613L28.1178 42.8943ZM28.7146 38.8185C28.7493 38.8034 28.8016 38.7851 28.8717 38.764C28.9418 38.7427 29.029 38.7207 29.1333 38.6975C29.4101 38.6395 29.6277 38.6486 29.7858 38.7247C29.9439 38.8007 30.0426 38.9274 30.0816 39.1047C30.1241 39.31 30.0774 39.4881 29.9418 39.6389C29.8062 39.7897 29.5968 39.8974 29.3135 39.9616C29.2382 39.978 29.1742 39.9906 29.1212 39.9993C29.0684 40.008 29.0217 40.0149 28.9819 40.0198L28.7146 38.8185Z" fill="#1C64F2"/>
<path fill-rule="evenodd" clip-rule="evenodd" d="M25.3993 43.0729L24.2034 40.3914L26.0531 38.2998L24.3837 38.0401L23.931 38.7508C23.8553 38.8697 23.7827 38.9859 23.713 39.0994C23.6433 39.2129 23.5668 39.3411 23.4831 39.484L23.4669 39.4815C23.4285 39.3363 23.3903 39.1963 23.3526 39.0615C23.3146 38.9264 23.2729 38.7839 23.2268 38.6342L22.9733 37.8208L21.2958 37.5596L22.4078 40.1412L20.4879 42.3088L22.1491 42.5675L22.6375 41.8407C22.7261 41.7042 22.8117 41.5749 22.8938 41.4529C22.9762 41.3309 23.0526 41.2056 23.1235 41.0774L23.1398 41.0799C23.1861 41.2263 23.232 41.3709 23.2779 41.5136C23.3238 41.6563 23.3747 41.809 23.4308 41.9714L23.7053 42.8096L25.3993 43.0729Z" fill="#1C64F2"/>
<path fill-rule="evenodd" clip-rule="evenodd" d="M18.9438 39.6069L19.4607 38.6995L17.7323 37.7291L18.1152 37.0563L19.9509 38.087L20.4747 37.1669L17.3472 35.4111L14.96 39.6034L18.1874 41.4155L18.7114 40.4957L16.7756 39.4087L17.2153 38.6365L18.9438 39.6069Z" fill="#1C64F2"/>
<path fill-rule="evenodd" clip-rule="evenodd" d="M46.8864 7.89263C46.8543 7.8599 46.8194 7.83919 46.7752 7.82614C46.6784 7.79569 46.5944 7.77705 46.4936 7.76338C45.45 7.63558 43.4545 8.07511 42.2144 8.41252C41.3451 8.6474 40.6194 8.87566 39.7727 9.18055C38.8182 9.52831 38.0322 9.87711 37.1346 10.351C36.2491 10.8243 35.5262 11.2703 34.7067 11.8483C33.7999 12.4921 33.0479 13.0546 32.1743 13.7423L32.1722 13.7438C30.0705 15.3687 28.4332 16.9196 26.7 18.9279C26.6436 18.9932 26.5706 19.0276 26.4841 19.0299C25.817 19.0466 25.2546 19.0912 24.5933 19.18C21.0411 19.6535 17.4392 20.883 14.4662 22.9025C14.6944 22.8642 14.8878 22.836 15.1176 22.8081C15.8788 22.7109 16.5311 22.697 17.2958 22.7619C17.9936 22.8178 18.5762 22.9649 19.216 23.2465C19.9255 23.5606 20.4499 24.0046 20.8735 24.6509L20.9866 24.8226L20.0469 26.0597C19.637 26.5935 19.3059 27.0556 18.9327 27.6151C18.8664 27.717 18.7836 27.92 18.8683 28.0417L20.1153 29.6495C20.1987 29.7501 20.4196 29.7342 20.5454 29.694C21.1209 29.5018 21.6014 29.3234 22.1627 29.0937L23.7885 28.4359L23.9266 28.5871C24.3501 29.0502 24.6142 29.5293 24.7792 30.1329C24.9571 30.7978 24.9976 31.3904 24.9114 32.0731C24.775 33.1963 24.4544 34.1719 23.9957 35.1798C25.1845 34.1584 26.0954 33.1874 27.0375 31.938C28.2025 30.3955 29.1324 28.8228 29.9185 27.0803C30.2971 26.2435 30.5699 25.5158 30.834 24.6368C30.8584 24.5548 30.9106 24.4939 30.9882 24.4566C33.3864 23.3056 35.3147 22.1301 37.4337 20.5276C38.168 19.9758 38.7812 19.5015 39.5001 18.9298C40.2886 18.2991 40.9244 17.7291 41.6366 17.0141C43.0233 15.6143 44.2005 13.9627 45.189 12.2512C45.5572 11.6166 45.848 11.0691 46.1674 10.409C46.3649 9.99932 46.9845 8.65051 46.92 7.99992C46.9167 7.96036 46.9064 7.92742 46.8864 7.89263Z" fill="#31C48D"/>
<path fill-rule="evenodd" clip-rule="evenodd" d="M37.6396 21.1056C35.5826 22.6485 33.6946 23.7966 31.3607 24.9264C31.0987 25.7873 30.829 26.5 30.4552 27.3192C29.6469 29.1056 28.7071 30.7045 27.5081 32.2888C26.4724 33.6626 25.4313 34.7631 24.1642 35.8103C27.2839 36.2602 30.5762 35.5046 33.2709 33.4441C37.174 30.4592 38.7316 25.5714 37.6396 21.1056Z" fill="#1C64F2"/>
<path fill-rule="evenodd" clip-rule="evenodd" d="M23.1294 35.6152C24.1186 33.7297 25.0531 30.9122 23.6234 29.1338L22.3861 29.6344C21.8117 29.873 21.3187 30.0559 20.7276 30.2498C20.3673 30.3666 19.9128 30.3324 19.6583 30.0172L18.3875 28.3778C18.1509 28.0561 18.2337 27.6093 18.4413 27.2958C18.8226 26.7241 19.1608 26.252 19.5794 25.7069L20.2651 24.8044C19.9144 24.3382 19.5129 24.0186 18.978 23.7806C18.4008 23.5281 17.8758 23.3958 17.2473 23.3442C16.5253 23.285 15.9095 23.2982 15.1909 23.3879C14.7049 23.4473 14.2747 23.5205 13.8281 23.6215C13.7918 24.9353 13.9718 26.2593 14.3757 27.5367C15.8478 26.379 16.8165 25.6201 16.8217 25.6162C16.9972 25.4708 17.2108 25.3699 17.4265 25.3067C17.7367 25.216 18.0178 25.216 18.0769 25.2926C18.1359 25.3693 18.065 25.641 17.8973 25.9161C17.8088 26.0611 17.6582 26.2636 17.4502 26.4086C17.3318 26.4992 16.2577 27.2846 14.6959 28.425C14.9397 29.0253 15.2355 29.6121 15.5841 30.1788C16.1753 29.702 16.5378 29.4114 16.5424 29.4078C16.7448 29.2384 16.9965 29.1274 17.2535 29.0634C17.6232 28.9716 17.964 28.9913 18.041 29.0911C18.118 29.191 18.0512 29.5255 17.8672 29.8575C17.7702 30.0327 17.6021 30.2751 17.3601 30.4416C17.2646 30.5145 16.8735 30.7912 16.2875 31.2016C16.3025 31.221 16.3175 31.2405 16.3326 31.2598C18.0961 33.5336 20.5194 35.0056 23.1294 35.6152Z" fill="#1C64F2"/>
<path fill-rule="evenodd" clip-rule="evenodd" d="M13.9017 22.5828C17.0201 20.4073 20.7686 19.097 24.5153 18.6018C25.1532 18.5161 25.6954 18.4711 26.3387 18.4504C28.0348 16.4986 29.6352 14.9794 31.6626 13.3988C27.5932 11.2092 22.4358 11.4559 18.5322 14.4408C15.8365 16.5024 14.2597 19.4717 13.9017 22.5828Z" fill="#1C64F2"/>
</svg>
