<svg width="24" height="24" viewBox="0 0 24 24" fill="none" xmlns="http://www.w3.org/2000/svg">
<path d="M3.12169 16.9853C1.65711 18.1535 0.377033 19.19 0.0534939 19.4977C0.0423338 19.5066 0.0371202 19.5188 0.0422309 19.5242C0.0470287 19.5295 0.0589189 19.5275 0.0698704 19.5195C0.0718521 19.518 1.52277 18.4607 3.2407 17.2082C3.44158 17.5743 3.6653 17.9324 3.91229 18.2807C3.39454 18.7222 3.00175 19.0721 2.87012 19.2236C2.86261 19.2299 2.86146 19.2412 2.86782 19.2487C2.87377 19.2557 2.88409 19.257 2.89171 19.2518C2.89265 19.2511 3.36189 18.926 4.03932 18.456C4.09106 18.526 4.14373 18.5956 4.19734 18.6648C4.3396 18.8482 4.48656 19.026 4.638 19.198C2.73547 20.7098 0.432 22.5573 0.0109406 22.9718C0.00113638 22.9797 -0.00293214 22.9909 0.00228286 22.9966C0.00708067 23.002 0.0180318 23.0009 0.0276274 22.9938C0.0301306 22.992 2.71836 21.0495 4.89187 19.4767C8.73512 23.555 15.144 24.1408 19.6922 20.663C24.08 17.3078 25.2276 11.3235 22.6186 6.6573C22.6973 6.52981 22.7742 6.40088 22.8496 6.2708C23.0388 5.94737 23.1874 5.66785 23.3493 5.33013C23.4941 5.02835 23.7928 4.36409 23.7526 3.96879C23.7456 3.89971 23.719 3.81666 23.6732 3.76322C23.618 3.69901 23.5549 3.658 23.4735 3.63376C22.9187 3.45139 21.6064 3.76891 21.0298 3.92478C20.883 3.96444 20.7382 4.00545 20.5952 4.04812C16.7184 0.351004 10.5979 -0.0761931 6.20981 3.27927C1.91525 6.56316 0.724562 12.3653 3.12169 16.9853Z" fill="#233876"/>
<path d="M5.08409 18.8438C6.31233 17.8694 7.27638 17.1112 7.28024 17.1083C7.3668 17.0364 7.47288 16.9871 7.5801 16.9569C7.73446 16.9134 7.87506 16.9156 7.9051 16.9545C7.93524 16.9936 7.90176 17.1299 7.81999 17.2672C7.77681 17.3397 7.70307 17.4405 7.60023 17.512C7.51543 17.5766 6.5614 18.2682 5.35694 19.14C9.24921 23.2094 15.7217 23.4853 19.9529 19.7111C23.5767 16.479 24.4016 11.3065 22.2656 7.20093C21.8992 7.73656 21.4931 8.24319 21.0275 8.71213C20.4225 9.32139 19.8379 9.78391 19.1411 10.3106C19.7495 12.554 19.0946 15.048 17.235 16.7068C15.671 18.1018 13.6067 18.5925 11.6922 18.2134C11.6747 18.2266 11.657 18.24 11.6392 18.2533C11.5911 18.2896 11.5296 18.2933 11.4773 18.2633C11.4341 18.2385 11.4082 18.1953 11.4043 18.1495C10.2015 17.8538 9.07211 17.2094 8.1817 16.2251C8.06092 16.0915 7.94682 15.9543 7.83939 15.8138C6.9664 16.4238 5.58703 17.382 4.50637 18.132C4.68671 18.3752 4.87935 18.6127 5.08409 18.8438Z" fill="#111928"/>
<path d="M3.57571 16.6236C4.7324 15.7033 5.9524 14.7405 6.87691 14.0129C6.64141 13.321 6.52991 12.5986 6.54065 11.8789C6.51541 11.87 6.49267 11.8538 6.47463 11.8313C6.42425 11.7682 6.435 11.6763 6.49862 11.6264C6.51625 11.6125 6.53398 11.5987 6.55171 11.585C6.65038 9.97412 7.36212 8.39944 8.6666 7.2358C10.7815 5.34939 13.8114 5.11668 16.1483 6.45203C16.4911 6.18639 16.8111 5.94985 17.1829 5.6867C17.6028 5.38885 17.9739 5.16007 18.429 4.91825C18.9343 4.65065 19.4437 4.43389 19.9737 4.24892C16.0432 0.716165 9.97922 0.636421 5.94875 4.23142C2.35957 7.43267 1.51599 12.5373 3.57571 16.6236Z" fill="#111928"/>
<path d="M7.039 14.438C6.08789 15.1323 4.86111 16.0269 3.70432 16.8703C3.89612 17.2266 4.11067 17.5746 4.34774 17.9123C5.37416 17.0499 6.68427 15.9847 7.50053 15.3248C7.32144 15.0388 7.1677 14.7422 7.039 14.438Z" fill="#111928"/>
<path d="M17.2441 3.94827L17.4414 3.44216L15.4215 2.66626L15.2243 3.17237L15.8824 3.42528L15.2045 5.16483L15.8966 5.43078L16.5745 3.69102L17.2441 3.94827Z" fill="#1C64F2"/>
<path d="M13.858 3.85104L13.8614 3.32981L12.8685 3.32349L12.871 2.93709L13.9254 2.94382L13.9287 2.41534L12.1324 2.40405L12.1169 4.81201L13.9708 4.82371L13.9741 4.29533L12.8624 4.28829L12.8652 3.84472L13.858 3.85104Z" fill="#1C64F2"/>
<path d="M9.69438 5.5671L9.46387 5.01998C9.38815 4.84019 9.31337 4.66828 9.23931 4.50423C9.16536 4.34029 9.09194 4.18505 9.01934 4.03892L9.03447 4.0326C9.15368 4.14238 9.28061 4.25133 9.41527 4.35945C9.54992 4.46757 9.6781 4.56637 9.79982 4.65575L10.5464 5.21312L11.2651 4.91455L10.3291 2.69312L9.70512 2.95233L9.92727 3.47968C9.99653 3.64445 10.068 3.8028 10.1418 3.95452C10.2157 4.10624 10.2927 4.25164 10.3733 4.39042L10.3619 4.39508C10.2484 4.28654 10.1282 4.17832 10.001 4.07051C9.87398 3.9627 9.75122 3.86721 9.63284 3.78395L8.94018 3.26996L8.13446 3.60468L9.07045 5.82612L9.69438 5.5671Z" fill="#1C64F2"/>
<path fill-rule="evenodd" clip-rule="evenodd" d="M7.4101 6.55886L7.94401 6.80462L8.4824 6.21731L6.13398 5.20166L5.47126 5.92443L6.72338 8.13582L7.23977 7.57264L6.92948 7.08289L7.4101 6.55886ZM6.64224 6.69101L6.40026 6.31259C6.36167 6.25014 6.31703 6.18231 6.26644 6.10909C6.21596 6.03576 6.17007 5.96679 6.12877 5.90196L6.1343 5.89595C6.20345 5.93023 6.27834 5.96762 6.35885 6.00811C6.43937 6.0486 6.51301 6.08475 6.57955 6.11665L6.98726 6.31455L6.64224 6.69101Z" fill="#1C64F2"/>
<path fill-rule="evenodd" clip-rule="evenodd" d="M3.61158 9.49574L5.89294 10.3124L6.50508 8.62674L5.99421 8.44385L5.63386 9.4364L3.86326 8.80259L3.61158 9.49574Z" fill="#1C64F2"/>
<path fill-rule="evenodd" clip-rule="evenodd" d="M5.76581 13.0822L5.75204 12.3537L4.92807 12.3691C4.92797 12.3465 4.92859 12.3202 4.93016 12.29C4.93172 12.2598 4.93224 12.2263 4.93193 12.1895C4.9287 12.003 4.90502 11.8323 4.86111 11.6778C4.81709 11.5232 4.75107 11.3912 4.66304 11.2818C4.59045 11.1954 4.50263 11.1304 4.39979 11.0867C4.29695 11.043 4.18389 11.0222 4.06061 11.0243C3.93524 11.028 3.82291 11.0589 3.72351 11.1171C3.62411 11.1753 3.54422 11.2525 3.48372 11.3486C3.42083 11.4451 3.37462 11.5657 3.3449 11.7106C3.31528 11.8554 3.30234 12.0265 3.3061 12.2239C3.31048 12.4308 3.31924 12.6083 3.33238 12.7565C3.34552 12.9046 3.36044 13.0281 3.37713 13.1268L5.76581 13.0822ZM3.81258 12.3899C3.80851 12.3716 3.80465 12.3443 3.80111 12.308C3.79756 12.2717 3.79516 12.2271 3.79412 12.1741C3.79276 12.0337 3.81873 11.9287 3.87193 11.8591C3.92512 11.7896 3.9974 11.7541 4.08877 11.7527C4.19421 11.7523 4.27755 11.7924 4.33867 11.8734C4.39979 11.9544 4.43223 12.0669 4.43609 12.211C4.43671 12.2494 4.43661 12.2819 4.43567 12.3084C4.43473 12.3349 4.43348 12.3583 4.43202 12.3783L3.81258 12.3899Z" fill="#1C64F2"/>
<path fill-rule="evenodd" clip-rule="evenodd" d="M22.4345 12.4483C22.4678 12.3659 22.4953 12.2517 22.5171 12.1061C22.5389 11.9605 22.5462 11.8036 22.5389 11.6356C22.523 11.369 22.4754 11.1512 22.3962 10.9823C22.3172 10.8134 22.2173 10.6903 22.0966 10.6129C21.9759 10.5356 21.8452 10.5008 21.7045 10.5087C21.5363 10.5163 21.3957 10.5809 21.2827 10.7025C21.1697 10.824 21.0797 11.0093 21.0126 11.2584C20.9672 11.4332 20.9275 11.561 20.8933 11.6418C20.8591 11.7226 20.8129 11.7641 20.7548 11.766C20.7001 11.7685 20.6551 11.7411 20.6197 11.6838C20.5843 11.6265 20.5634 11.5417 20.5567 11.4292C20.5513 11.2925 20.5584 11.1735 20.5778 11.0722C20.5973 10.971 20.618 10.8901 20.6401 10.8295L20.1112 10.7023C20.081 10.7929 20.0576 10.8994 20.0413 11.0219C20.0249 11.1444 20.0206 11.2867 20.0284 11.4488C20.0518 11.7971 20.1391 12.0636 20.2901 12.2479C20.4411 12.4322 20.6262 12.5202 20.8449 12.5114C21.0231 12.4988 21.1676 12.4202 21.278 12.2757C21.3885 12.1311 21.4737 11.9394 21.5337 11.7007C21.5705 11.5449 21.6076 11.432 21.645 11.362C21.6823 11.292 21.7299 11.2562 21.7876 11.2544C21.8493 11.251 21.8992 11.2794 21.9372 11.3394C21.9753 11.3996 21.9979 11.4926 22.0052 11.6188C22.0111 11.7591 22.0024 11.8923 21.9792 12.0182C21.9559 12.1441 21.9269 12.2509 21.8921 12.3382L22.4345 12.4483Z" fill="#1C64F2"/>
<path fill-rule="evenodd" clip-rule="evenodd" d="M21.7264 15.5763C21.7856 15.5095 21.8498 15.4111 21.9194 15.281C21.9889 15.151 22.0485 15.0056 22.0982 14.8447C22.1727 14.5881 22.2011 14.367 22.1833 14.1816C22.1654 13.9962 22.1126 13.8471 22.0249 13.7341C21.9372 13.6212 21.8257 13.5451 21.6904 13.5057C21.5293 13.4573 21.375 13.4716 21.2276 13.5487C21.0802 13.6258 20.933 13.7707 20.7862 13.9832C20.6846 14.1329 20.6042 14.2402 20.5448 14.3051C20.4855 14.3699 20.428 14.3936 20.3725 14.3762C20.3201 14.3604 20.287 14.3197 20.2728 14.2539C20.2588 14.1882 20.2675 14.1012 20.2989 13.9931C20.3398 13.8624 20.3864 13.7526 20.4388 13.6636C20.4912 13.5746 20.538 13.5051 20.5792 13.4553L20.1234 13.1602C20.0645 13.2356 20.0066 13.3282 19.95 13.4383C19.8933 13.5484 19.8415 13.6811 19.7944 13.8364C19.6992 14.1725 19.6921 14.4525 19.7725 14.6764C19.8529 14.9003 19.9977 15.0444 20.2069 15.1087C20.3792 15.1559 20.5417 15.1297 20.6944 15.0301C20.8471 14.9305 20.9918 14.7779 21.1286 14.5728C21.2157 14.4381 21.2886 14.3441 21.3474 14.2904C21.4061 14.2368 21.463 14.2188 21.5179 14.2363C21.5772 14.2536 21.6147 14.2968 21.6304 14.3661C21.646 14.4353 21.6361 14.5306 21.6005 14.6518C21.559 14.786 21.506 14.9086 21.4417 15.0197C21.3774 15.1308 21.3141 15.2217 21.2521 15.2925L21.7264 15.5763Z" fill="#1C64F2"/>
<path fill-rule="evenodd" clip-rule="evenodd" d="M20.3972 16.2868L19.9725 15.9804L19.389 16.7781L19.0741 16.5509L19.6938 15.7039L19.2633 15.3933L18.2075 16.8365L20.1694 18.2518L21.2592 16.7625L20.8285 16.4519L20.1751 17.3451L19.8137 17.0844L20.3972 16.2868Z" fill="#1C64F2"/>
<path fill-rule="evenodd" clip-rule="evenodd" d="M17.4092 20.4248L18.0196 20.0203L17.5141 19.2683L17.6131 19.2027C17.7051 19.1376 17.79 19.1078 17.8677 19.1134C17.9456 19.119 18.038 19.1702 18.145 19.2669C18.2618 19.3699 18.3604 19.4507 18.4405 19.5092C18.5206 19.5677 18.5795 19.6062 18.617 19.6242L19.2445 19.2083C19.2109 19.1907 19.1623 19.1565 19.0989 19.106C19.0355 19.0555 18.9658 18.9989 18.8901 18.9359C18.8144 18.8729 18.7415 18.814 18.6713 18.759C18.5848 18.691 18.4976 18.6418 18.4099 18.6112C18.3221 18.5807 18.2309 18.5749 18.1363 18.5939L18.1304 18.585C18.2037 18.4922 18.253 18.3773 18.2781 18.2402C18.3032 18.103 18.2761 17.97 18.1968 17.8406C18.1317 17.7442 18.0559 17.6726 17.9694 17.626C17.883 17.5794 17.7865 17.556 17.6801 17.5559C17.5552 17.556 17.4203 17.5866 17.2757 17.6475C17.1312 17.7084 16.9713 17.7973 16.7964 17.9142C16.6421 18.017 16.5045 18.1146 16.3836 18.2071C16.2626 18.2996 16.1623 18.3811 16.0826 18.4516L17.4092 20.4248ZM16.9387 18.4123C16.9516 18.3993 16.9737 18.3807 17.0054 18.3562C17.0371 18.3318 17.0816 18.3005 17.1391 18.2622C17.2424 18.1946 17.3347 18.163 17.4162 18.1678C17.4978 18.1724 17.5639 18.2121 17.6146 18.2866C17.6646 18.3625 17.6728 18.4433 17.6394 18.5292C17.6061 18.6152 17.5313 18.6973 17.4152 18.7757L17.2547 18.882L16.9387 18.4123Z" fill="#1C64F2"/>
<path fill-rule="evenodd" clip-rule="evenodd" d="M14.0589 21.4472L14.7756 21.2901L14.5978 20.491C14.6201 20.4864 14.6462 20.482 14.6763 20.4775C14.7064 20.4731 14.7396 20.4669 14.7758 20.4594C14.9593 20.4194 15.1231 20.3628 15.267 20.2895C15.411 20.2162 15.5282 20.1259 15.6189 20.0186C15.69 19.9309 15.7369 19.8327 15.7596 19.7239C15.7825 19.6151 15.7807 19.501 15.7543 19.3814C15.7259 19.2601 15.6733 19.1569 15.5962 19.0715C15.5191 18.9862 15.4272 18.9236 15.3203 18.8838C15.2126 18.8416 15.0844 18.8204 14.9356 18.8201C14.7867 18.8198 14.6153 18.8409 14.4212 18.8835C14.2177 18.9285 14.0441 18.972 13.9005 19.0141C13.7569 19.0561 13.6379 19.0949 13.5438 19.1307L14.0589 21.4472ZM14.3573 19.4092C14.3746 19.4017 14.4008 19.3926 14.4359 19.382C14.4709 19.3713 14.5145 19.3604 14.5666 19.3488C14.7051 19.3198 14.8138 19.3243 14.8929 19.3623C14.972 19.4003 15.0213 19.4637 15.0408 19.5524C15.0621 19.655 15.0387 19.7441 14.9709 19.8195C14.9031 19.8949 14.7984 19.9487 14.6568 19.9808C14.6191 19.989 14.5871 19.9953 14.5606 19.9997C14.5342 20.004 14.5108 20.0074 14.4909 20.0099L14.3573 19.4092Z" fill="#1C64F2"/>
<path fill-rule="evenodd" clip-rule="evenodd" d="M12.6997 21.5364L12.1017 20.1957L13.0266 19.1499L12.1918 19.0201L11.9655 19.3754C11.9276 19.4348 11.8913 19.4929 11.8565 19.5497C11.8217 19.6064 11.7834 19.6705 11.7416 19.742L11.7334 19.7408C11.7142 19.6682 11.6952 19.5981 11.6763 19.5307C11.6573 19.4632 11.6364 19.392 11.6134 19.3171L11.4867 18.9104L10.6479 18.7798L11.2039 20.0706L10.2439 21.1544L11.0746 21.2837L11.3187 20.9203C11.3631 20.8521 11.4058 20.7875 11.4469 20.7265C11.4881 20.6655 11.5263 20.6028 11.5618 20.5387L11.5699 20.54C11.5931 20.6132 11.616 20.6855 11.6389 20.7568C11.6619 20.8282 11.6873 20.9045 11.7154 20.9857L11.8527 21.4048L12.6997 21.5364Z" fill="#1C64F2"/>
<path fill-rule="evenodd" clip-rule="evenodd" d="M9.4719 19.8035L9.73035 19.3497L8.86612 18.8645L9.05762 18.5282L9.97546 19.0435L10.2374 18.5835L8.67358 17.7056L7.47997 19.8017L9.09371 20.7078L9.35571 20.2478L8.3878 19.7043L8.60767 19.3183L9.4719 19.8035Z" fill="#1C64F2"/>
<path fill-rule="evenodd" clip-rule="evenodd" d="M23.4432 3.94631C23.4271 3.92995 23.4097 3.9196 23.3876 3.91307C23.3392 3.89785 23.2972 3.88853 23.2468 3.88169C22.725 3.81779 21.7273 4.03755 21.1072 4.20626C20.6726 4.3237 20.3097 4.43783 19.8864 4.59027C19.4091 4.76416 19.0161 4.93856 18.5673 5.17551C18.1245 5.41215 17.7631 5.63513 17.3533 5.92417C16.8999 6.24605 16.5239 6.52732 16.0871 6.87116L16.0861 6.87188C15.0353 7.68434 14.2166 8.45982 13.35 9.46397C13.3218 9.4966 13.2853 9.51379 13.242 9.51493C12.9085 9.52332 12.6273 9.54558 12.2967 9.59001C10.5205 9.82676 8.71959 10.4415 7.2331 11.4513C7.34721 11.4321 7.44389 11.418 7.55883 11.404C7.93942 11.3555 8.26557 11.3485 8.64793 11.3809C8.99681 11.4089 9.28813 11.4824 9.60801 11.6233C9.96274 11.7803 10.2249 12.0023 10.4368 12.3254L10.4933 12.4113L10.0234 13.0299C9.81849 13.2968 9.65297 13.5278 9.46637 13.8075C9.43321 13.8585 9.3918 13.96 9.43414 14.0209L10.0576 14.8247C10.0994 14.8751 10.2098 14.8671 10.2727 14.847C10.5605 14.7509 10.8007 14.6617 11.0814 14.5469L11.8943 14.218L11.9633 14.2936C12.175 14.5251 12.3071 14.7647 12.3896 15.0664C12.4786 15.3989 12.4988 15.6952 12.4557 16.0365C12.3875 16.5982 12.2272 17.0859 11.9978 17.5899C12.5922 17.0792 13.0477 16.5937 13.5187 15.969C14.1013 15.1978 14.5662 14.4114 14.9592 13.5401C15.1485 13.1217 15.285 12.7579 15.417 12.3184C15.4292 12.2774 15.4553 12.2469 15.4941 12.2283C16.6932 11.6528 17.6574 11.0651 18.7169 10.2638C19.084 9.9879 19.3906 9.75074 19.75 9.46491C20.1443 9.14955 20.4622 8.86455 20.8183 8.50705C21.5117 7.80716 22.1002 6.98135 22.5945 6.1256C22.7786 5.80828 22.924 5.53457 23.0837 5.20451C23.1825 4.99966 23.4922 4.32525 23.46 3.99996C23.4583 3.98018 23.4532 3.96371 23.4432 3.94631Z" fill="#31C48D"/>
<path fill-rule="evenodd" clip-rule="evenodd" d="M18.8198 10.5527C17.7913 11.3242 16.8473 11.8982 15.6804 12.4632C15.5494 12.8936 15.4145 13.2499 15.2276 13.6595C14.8234 14.5528 14.3536 15.3522 13.754 16.1443C13.2362 16.8313 12.7156 17.3815 12.0821 17.9051C13.6419 18.1301 15.2881 17.7523 16.6354 16.722C18.587 15.2296 19.3658 12.7857 18.8198 10.5527Z" fill="#1C64F2"/>
<path fill-rule="evenodd" clip-rule="evenodd" d="M11.5647 17.8076C12.0593 16.8648 12.5265 15.4561 11.8117 14.5669L11.1931 14.8172C10.9058 14.9365 10.6594 15.0279 10.3638 15.1249C10.1836 15.1833 9.95638 15.1662 9.82913 15.0086L9.19373 14.1889C9.07546 14.028 9.11686 13.8047 9.22064 13.6479C9.4113 13.362 9.58037 13.126 9.7897 12.8534L10.1325 12.4022C9.95721 12.1691 9.75643 12.0093 9.48901 11.8903C9.20041 11.764 8.93789 11.6979 8.62363 11.6721C8.26265 11.6425 7.95475 11.6491 7.59544 11.6939C7.35242 11.7236 7.13735 11.7602 6.91405 11.8107C6.8959 12.4676 6.98591 13.1296 7.18784 13.7683C7.92388 13.1895 8.40825 12.81 8.41086 12.8081C8.49858 12.7354 8.60538 12.6849 8.71322 12.6533C8.86832 12.608 9.00892 12.608 9.03843 12.6463C9.06795 12.6846 9.03249 12.8205 8.94863 12.958C8.90441 13.0305 8.8291 13.1318 8.72511 13.2043C8.66587 13.2496 8.12883 13.6423 7.34794 14.2125C7.46986 14.5126 7.61776 14.806 7.79205 15.0894C8.08763 14.851 8.26891 14.7057 8.2712 14.7039C8.37237 14.6192 8.49826 14.5637 8.62676 14.5317C8.81158 14.4858 8.982 14.4956 9.02049 14.5455C9.05898 14.5955 9.0256 14.7627 8.93361 14.9287C8.88511 15.0163 8.80105 15.1375 8.68006 15.2208C8.63229 15.2572 8.43673 15.3956 8.14375 15.6008C8.15126 15.6105 8.15877 15.6202 8.16628 15.6299C9.04803 16.7668 10.2597 17.5028 11.5647 17.8076Z" fill="#1C64F2"/>
<path fill-rule="evenodd" clip-rule="evenodd" d="M6.95086 11.2914C8.51005 10.2037 10.3843 9.54852 12.2577 9.3009C12.5766 9.25803 12.8477 9.23555 13.1693 9.2252C14.0174 8.24932 14.8176 7.48968 15.8313 6.69939C13.7966 5.60462 11.2179 5.72796 9.26612 7.22041C7.91825 8.25118 7.12984 9.73587 6.95086 11.2914Z" fill="#1C64F2"/>
</svg>
